<?xml version="1.0" encoding="iso-8859-1"?>
<!-- Uploaded to: SVG Repo, www.svgrepo.com, Generator: SVG Repo Mixer Tools -->
<svg height="800px" width="800px" version="1.1" id="Layer_1" xmlns="http://www.w3.org/2000/svg" xmlns:xlink="http://www.w3.org/1999/xlink" 
	 viewBox="0 0 512.853 512.853" xml:space="preserve">
<g transform="translate(1 1)">
	<polygon style="fill:#FD9808;" points="357.4,366.36 255,366.36 237.933,366.36 186.733,502.893 255,502.893 408.6,502.893 	"/>
	<polygon style="fill:#FFFFFF;" points="272.067,366.36 169.667,366.36 152.6,366.36 101.4,502.893 169.667,502.893 
		323.267,502.893 	"/>
	<polygon style="fill:#FFDD09;" points="331.8,366.36 229.4,366.36 178.2,366.36 127,502.893 229.4,502.893 383,502.893 	"/>
	<path style="fill:#FD9808;" d="M502.467,366.36H186.733v-23.893c0-14.507,11.947-27.307,27.307-27.307h261.973
		c14.507,0,27.307,11.947,27.307,27.307v23.893H502.467z"/>
	<path style="fill:#FFFFFF;" d="M323.267,366.36H7.533v-23.893c0-15.36,11.947-27.307,27.307-27.307h261.973
		c14.507,0,27.307,11.947,27.307,27.307v23.893H323.267z"/>
	<g>
		<path style="fill:#FFDD09;" d="M476.867,366.36H33.133v-23.893c0-15.36,11.947-27.307,27.307-27.307h389.973
			c14.507,0,27.307,11.947,27.307,27.307v23.893H476.867z"/>
		<polygon style="fill:#FFDD09;" points="476.867,315.16 33.133,315.16 75.8,263.96 434.2,263.96 		"/>
		<polygon style="fill:#FFDD09;" points="237.933,42.093 272.067,42.093 272.067,7.96 237.933,7.96 		"/>
	</g>
	<path style="fill:#FD9808;" d="M255,84.76c-98.987,0-179.2,80.213-179.2,179.2h358.4C434.2,164.973,353.987,84.76,255,84.76"/>
	<path style="fill:#FFDD09;" d="M246.467,84.76c-89.6,0-162.133,80.213-162.133,179.2H408.6
		C408.6,164.973,336.067,84.76,246.467,84.76"/>
	<path style="fill:#FFFFFF;" d="M255,84.76c1.707,0,2.56,0,4.267,0c-87.04,2.56-157.867,81.92-157.867,179.2H75.8
		C75.8,164.973,156.013,84.76,255,84.76"/>
	<path d="M502.467,374.893H7.533c-5.12,0-8.533-3.413-8.533-8.533v-23.893c0-19.627,16.213-35.84,35.84-35.84h441.173
		c19.627,0,35.84,16.213,35.84,35.84v23.893C511,371.48,507.587,374.893,502.467,374.893z M16.067,357.827h477.867v-15.36
		c0-10.24-8.533-18.773-18.773-18.773H34.84c-10.24,0-18.773,8.533-18.773,18.773V357.827z"/>
	<path d="M476.867,323.693H33.133c-3.413,0-5.973-1.707-7.68-5.12c-1.707-3.413-0.853-6.827,0.853-9.387l42.667-51.2
		c1.707-1.707,4.267-2.56,6.827-2.56h358.4c2.56,0,5.12,0.853,6.827,3.413l42.667,51.2c1.707,2.56,2.56,5.973,0.853,9.387
		C482.84,321.987,480.28,323.693,476.867,323.693z M51.053,306.627h407.04l-28.16-34.133H80.067L51.053,306.627z"/>
	<path d="M434.2,272.493H75.8c-5.12,0-8.533-3.413-8.533-8.533c0-103.253,84.48-187.733,187.733-187.733
		s187.733,84.48,187.733,187.733C442.733,269.08,439.32,272.493,434.2,272.493z M84.333,255.427h341.333
		C421.4,164.973,346.307,93.293,255,93.293S88.6,164.973,84.333,255.427z"/>
	<path d="M263.533,409.027c0,5.12-3.413,8.533-8.533,8.533s-8.533-3.413-8.533-8.533s3.413-8.533,8.533-8.533
		S263.533,403.907,263.533,409.027"/>
	<path d="M255,468.76c-5.12,0-8.533-3.413-8.533-8.533V443.16c0-5.12,3.413-8.533,8.533-8.533s8.533,3.413,8.533,8.533v17.067
		C263.533,465.347,260.12,468.76,255,468.76z"/>
	<path d="M331.8,409.027c0,5.12-3.413,8.533-8.533,8.533c-5.12,0-8.533-3.413-8.533-8.533s3.413-8.533,8.533-8.533
		C328.387,400.493,331.8,403.907,331.8,409.027"/>
	<path d="M323.267,468.76c-5.12,0-8.533-3.413-8.533-8.533V443.16c0-5.12,3.413-8.533,8.533-8.533c5.12,0,8.533,3.413,8.533,8.533
		v17.067C331.8,465.347,328.387,468.76,323.267,468.76z"/>
	<path d="M195.267,409.027c0,5.12-3.413,8.533-8.533,8.533c-5.12,0-8.533-3.413-8.533-8.533s3.413-8.533,8.533-8.533
		C191.853,400.493,195.267,403.907,195.267,409.027"/>
	<path d="M186.733,468.76c-5.12,0-8.533-3.413-8.533-8.533V443.16c0-5.12,3.413-8.533,8.533-8.533c5.12,0,8.533,3.413,8.533,8.533
		v17.067C195.267,465.347,191.853,468.76,186.733,468.76z"/>
	<path d="M408.6,511.427H101.4c-2.56,0-5.12-1.707-6.827-3.413c-1.707-2.56-1.707-5.12-0.853-7.68l51.2-136.533
		c0.853-3.413,4.267-5.12,7.68-5.12h204.8c3.413,0,6.827,2.56,7.68,5.12l51.2,136.533c0.853,2.56,0.853,5.973-0.853,7.68
		C413.72,509.72,411.16,511.427,408.6,511.427z M113.347,494.36H395.8l-44.373-119.467H158.573L113.347,494.36z"/>
	<path d="M272.067,50.627h-34.133l-8.533-8.533V7.96l8.533-8.533h34.133L280.6,7.96v34.133L272.067,50.627z M246.467,33.56h17.067
		V16.493h-17.067V33.56z"/>
	<path d="M255,93.293c-5.12,0-8.533-3.413-8.533-8.533V42.093c0-5.12,3.413-8.533,8.533-8.533s8.533,3.413,8.533,8.533V84.76
		C263.533,89.88,260.12,93.293,255,93.293z"/>
	<path d="M169.667,204.227c-5.12,0-8.533-3.413-8.533-8.533c0-33.28,26.453-59.733,59.733-59.733c5.12,0,8.533,3.413,8.533,8.533
		c0,5.12-3.413,8.533-8.533,8.533c-23.893,0-42.667,18.773-42.667,42.667C178.2,200.813,174.787,204.227,169.667,204.227z"/>
	<path d="M161.133,323.693H92.867v-68.267h68.267V323.693z M109.933,306.627h34.133v-34.133h-34.133V306.627z"/>
	<path d="M212.333,323.693h-68.267v-68.267h68.267V323.693z M161.133,306.627h34.133v-34.133h-34.133V306.627z"/>
	<path d="M263.533,323.693h-68.267v-68.267h68.267V323.693z M212.333,306.627h34.133v-34.133h-34.133V306.627z"/>
	<path d="M314.733,323.693h-68.267v-68.267h68.267V323.693z M263.533,306.627h34.133v-34.133h-34.133V306.627z"/>
	<path d="M365.933,323.693h-68.267v-68.267h68.267V323.693z M314.733,306.627h34.133v-34.133h-34.133V306.627z"/>
	<path d="M417.133,323.693h-68.267v-68.267h68.267V323.693z M365.933,306.627h34.133v-34.133h-34.133V306.627z"/>
</g>
</svg>